<?xml version="1.0" encoding="UTF-8"?>
<svg width="298px" height="240px" viewBox="0 0 298 240" version="1.1" xmlns="http://www.w3.org/2000/svg" xmlns:xlink="http://www.w3.org/1999/xlink">
    <!-- Generator: Sketch 48.2 (47327) - http://www.bohemiancoding.com/sketch -->
    <title>VT - White Background</title>
    <desc>Created with Sketch.</desc>
    <defs></defs>
    <g id="Page-9" stroke="none" stroke-width="1" fill="none" fill-rule="evenodd">
        <g id="VT---White-Background">
            <g id="Group">
                <path d="M87.6404494,239.696629 C68.3756414,175.651685 64.0449438,162.168539 50.5617978,125.089888 C43.0671809,104.479691 37.2375402,91.8635006 30.3370787,87.3159343 C19.6354339,80.2632989 6.74157303,87.2831976 -3.55271368e-15,98.1235955 C3.37078652,75.9919849 15.7007436,61.9149031 33.7078652,64.4157303 C47.4415758,66.3230667 54.2874992,81.1652471 57.2680231,87.2831976 C57.5940578,87.9524302 61.8080314,96.8687577 69.9099441,114.03218 L91.011236,165.583619 C96.2860774,152.10356 100.74386,140.76931 104.384585,131.580869 C118.189336,96.7405137 128.089888,74.5280899 143.492856,48.112447 M147.921054,44.7416605 C151.948037,38.2044327 158.426966,30.7078652 166.697029,23.7047493 C203.521846,-7.02081583 261.8399,-13.6045159 297.591555,65.8796253 C262.861795,29.2124129 222.783324,31.2574567 198.876404,40.8202247 C182.022472,47.5617978 177.45505,53.3141198 163.828246,66.3868341 C148.314607,81.2696629 120.75115,142.554956 114.606742,158.797753 M209.558652,239.785216 L201.902582,239.785216 C199.49831,202.943665 189.270362,94.7672707 188.419433,89.531139 C188.764045,77.8988764 212.359551,61.0449438 223.041798,64.5043175 L209.558652,239.785216 Z" id="Combined-Shape" fill="#000000"></path>
                <path d="M50.5617978,125.089888 C43.0671809,104.479691 37.2375402,91.8635006 30.3370787,87.3159343 C19.6354339,80.2632989 6.74157303,87.2831976 0,98.1235955 C3.37078652,75.9919849 15.7007436,61.9149031 33.7078652,64.4157303 C47.4415758,66.3230667 54.2874992,81.1652471 57.2680231,87.2831976 C57.5940578,87.9524302 61.8080314,96.8687577 69.9099441,114.03218 L91.011236,165.583619 C73.0337079,163.306899 59.5505618,149.808989 50.5617978,125.089888 Z" id="Path" fill="#5735D2"></path>
                <path d="M201.902582,239.785216 C199.49831,202.943665 189.270362,94.7672707 188.419433,89.531139 C188.764045,77.8988764 212.359551,61.0449438 223.041798,64.5043175 C220.414682,98.1531246 216.853933,110.483146 212.359551,101.494382 C203.370787,83.5168539 199.88513,129.613799 201.902582,239.785216 Z" id="Path" fill="#5735D2"></path>
                <path d="M166.697029,23.7047493 C201.778577,-9.81698759 262.921348,-16.4831461 297.591555,65.8796253 C278.357231,45.0985383 248.910566,19.3493854 222.47191,17.2247191 C182.721083,14.0302587 151.685393,37.4494382 166.697029,23.7047493 Z" id="Path" fill="#5735D2"></path>
            </g>
        </g>
    </g>
</svg>