<?xml version="1.0" encoding="UTF-8"?>
<svg width="300px" height="300px" viewBox="0 0 300 300" version="1.1" xmlns="http://www.w3.org/2000/svg" xmlns:xlink="http://www.w3.org/1999/xlink">
    <!-- Generator: Sketch 48.2 (47327) - http://www.bohemiancoding.com/sketch -->
    <title>Purple</title>
    <desc>Created with Sketch.</desc>
    <defs></defs>
    <g id="Final-Logo" stroke="none" stroke-width="1" fill="none" fill-rule="evenodd">
        <g id="Purple">
            <ellipse id="Oval" stroke="#000000" stroke-width="5" cx="150" cy="149.508478" rx="145" ry="140.322581"></ellipse>
            <ellipse id="Oval" stroke="#000000" stroke-width="5" cx="146.5" cy="143.379446" rx="133.5" ry="129.193548"></ellipse>
            <ellipse id="Oval" stroke="#000000" stroke-width="5" cx="138.5" cy="135.63751" rx="125.5" ry="121.451613"></ellipse>
            <g id="VT" transform="translate(23.000000, 54.000000)">
                <path d="M68.7871427,186.75411 C53.7864619,136.885055 50.4143332,126.386307 39.9155849,97.5147492 C34.0798478,81.4664722 29.5405563,71.6427849 24.1674625,68.1017898 C15.8345501,62.6102047 5.79465294,68.0762991 0.545278795,76.5172526 C3.16996587,59.2843154 12.7707753,48.3230949 26.7921495,50.2703819 C37.4860017,51.755543 42.816629,63.3125131 45.1374353,68.0762991 C45.3913045,68.5974019 48.6725453,75.5401641 54.9811576,88.9045858 L71.4118298,129.045484 C75.5191228,118.549139 78.9902075,109.723644 81.8250837,102.568999 C92.574252,75.440306 100.283388,58.1444431 112.277019,37.5757135 M115.725068,34.9510264 C118.860706,29.8607672 123.905571,24.0235112 130.345115,18.5704848 C159.019022,-5.35419662 204.428793,-10.4806418 232.267075,51.4102542 C205.224499,22.8590665 174.017111,24.4514546 155.401816,31.8975724 C142.278381,37.1469465 138.721925,41.6260333 128.111317,51.8051959 C116.03151,63.3938173 94.5690267,111.11405 89.7846393,123.76162 M163.719625,186.823089 L157.758171,186.823089 C155.886067,158.136151 147.922002,73.9038263 147.25942,69.8266748 C147.527755,60.7691302 165.900564,47.6456948 174.218373,50.3393609 L163.719625,186.823089 Z" id="Combined-Shape" fill="#000000"></path>
                <path d="M39.9155849,97.5147492 C34.0798478,81.4664722 29.5405563,71.6427849 24.1674625,68.1017898 C15.8345501,62.6102047 5.79465294,68.0762991 0.545278795,76.5172526 C3.16996587,59.2843154 12.7707753,48.3230949 26.7921495,50.2703819 C37.4860017,51.755543 42.816629,63.3125131 45.1374353,68.0762991 C45.3913045,68.5974019 48.6725453,75.5401641 54.9811576,88.9045858 L71.4118298,129.045484 C57.4134987,127.272699 46.9147504,116.762454 39.9155849,97.5147492 Z" id="Path" fill="#5735D2"></path>
                <path d="M157.758171,186.823089 C155.886067,158.136151 147.922002,73.9038263 147.25942,69.8266748 C147.527755,60.7691302 165.900564,47.6456948 174.218373,50.3393609 C172.17275,76.5402456 169.400147,86.1411052 165.900564,79.1419397 C158.901399,65.1436086 156.187268,101.037325 157.758171,186.823089 Z" id="Path" fill="#5735D2"></path>
                <path d="M130.345115,18.5704848 C157.661613,-7.5314558 205.27087,-12.7221079 232.267075,51.4102542 C217.290131,35.2289119 194.361275,15.1791495 173.774626,13.5247629 C142.82236,11.0373734 118.656197,29.2728853 130.345115,18.5704848 Z" id="Path" fill="#5735D2"></path>
            </g>
        </g>
    </g>
</svg>