<?xml version="1.0" encoding="UTF-8"?>
<svg width="800px" height="799px" viewBox="0 0 800 799" version="1.1" xmlns="http://www.w3.org/2000/svg" xmlns:xlink="http://www.w3.org/1999/xlink">
    <!-- Generator: Sketch 48.2 (47327) - http://www.bohemiancoding.com/sketch -->
    <title>Combined Shape</title>
    <desc>Created with Sketch.</desc>
    <defs></defs>
    <g id="B&amp;W:-800px" stroke="none" stroke-width="1" fill="none" fill-rule="evenodd" transform="translate(0.000000, -1.000000)">
        <path d="M400,801 C179.0861,801 0,621.9139 0,401 C0,180.0861 179.0861,1 400,1 C620.9139,1 800,180.0861 800,401 C800,621.9139 620.9139,801 400,801 Z M397.641566,236.103804 L326.081764,481.098545 C339.280074,446.208695 398.486924,314.566675 431.810529,282.598065 C461.081171,254.517616 470.892085,242.161515 507.094665,227.680483 C558.447202,207.139468 644.536548,202.746673 719.13676,281.50857 C642.341498,110.775064 517.073165,124.916982 437.972731,190.916103 C420.208472,205.958934 406.291604,222.06171 397.641566,236.103804 Z M523.640343,651.861217 L552.602408,275.354382 C529.656729,267.923579 478.973117,304.126159 478.232884,329.112489 C480.060696,340.359804 502.03053,572.724836 507.194955,651.861217 L523.640343,651.861217 Z M261.757635,651.67093 L381.729708,240.14432 C348.643828,296.885643 327.377247,344.598369 297.724369,419.436141 C289.904021,439.173094 280.328615,463.519287 268.998151,492.47472 L223.672159,381.741209 C206.269091,344.873839 197.217392,325.721392 196.517063,324.283867 C190.114839,311.142388 175.40966,279.261091 145.909378,275.164095 C107.229725,269.792269 80.7447334,300.030119 73.5042174,347.569256 C87.9852495,324.283867 115.681517,309.204986 138.668862,324.354186 C153.49119,334.122448 166.013373,361.222275 182.111958,405.493384 C211.074023,485.139061 220.376447,514.101125 261.757635,651.67093 Z" id="Combined-Shape" fill="#000000"></path>
    </g>
</svg>